<?xml version="1.0" standalone="no"?>
<!DOCTYPE svg PUBLIC "-//W3C//DTD SVG 20010904//EN"
 "http://www.w3.org/TR/2001/REC-SVG-20010904/DTD/svg10.dtd">
<svg version="1.0" xmlns="http://www.w3.org/2000/svg"
 width="64.000000pt" height="64.000000pt" viewBox="0 0 64.000000 64.000000"
 preserveAspectRatio="xMidYMid meet">

<g transform="translate(0.000000,64.000000) scale(0.100000,-0.100000)"
fill="#58D9B0" stroke="none">
<path d="M240 606 c-104 -27 -190 -121 -211 -229 -32 -158 74 -316 234 -348
159 -32 316 74 348 234 23 115 -28 238 -125 303 -78 51 -158 64 -246 40z m217
-52 c167 -103 179 -333 25 -451 -117 -89 -288 -64 -379 55 -42 55 -57 111 -50
190 6 73 40 137 98 184 56 45 104 59 186 55 59 -3 82 -10 120 -33z"/>
<path d="M265 551 c-111 -29 -179 -116 -179 -231 0 -138 96 -234 234 -234 138
0 234 96 234 234 0 95 -44 169 -125 210 -42 22 -121 32 -164 21z m133 -37
c174 -72 174 -316 0 -388 -133 -56 -287 47 -288 192 -1 147 154 253 288 196z"/>
<path d="M268 382 l-22 -52 -58 0 c-32 0 -58 -4 -58 -10 0 -6 29 -10 68 -10
65 0 69 1 82 28 13 27 13 26 37 -51 14 -45 29 -77 36 -74 6 2 18 25 27 52 l16
49 57 -3 c36 -1 57 2 57 8 0 6 -17 11 -38 11 -32 0 -41 5 -50 25 -17 38 -28
31 -50 -32 l-19 -58 -23 75 c-13 41 -28 79 -32 85 -5 5 -18 -14 -30 -43z"/>
</g>
</svg>
