<?xml version="1.0" standalone="no"?>
<!DOCTYPE svg PUBLIC "-//W3C//DTD SVG 20010904//EN"
 "http://www.w3.org/TR/2001/REC-SVG-20010904/DTD/svg10.dtd">
<svg version="1.0" xmlns="http://www.w3.org/2000/svg"
 width="64.000000pt" height="64.000000pt" viewBox="0 0 64.000000 64.000000"
 preserveAspectRatio="xMidYMid meet">

<g transform="translate(0.000000,64.000000) scale(0.100000,-0.100000)"
fill="#08BDBD" stroke="none">
<path d="M195 544 c-143 -49 -141 -46 -127 -197 6 -68 14 -132 18 -140 8 -22
208 -147 235 -147 27 0 225 125 233 147 4 9 12 71 18 139 11 114 10 125 -6
143 -19 21 -216 92 -251 90 -11 0 -65 -16 -120 -35z m237 -46 c53 -18 99 -37
102 -43 2 -6 -1 -60 -8 -120 l-11 -110 -80 -53 c-44 -29 -90 -55 -102 -58 -16
-4 -47 9 -107 46 -47 29 -90 58 -94 64 -10 12 -32 214 -25 231 4 12 176 73
207 74 11 1 64 -13 118 -31z"/>
</g>
</svg>
